<svg xmlns="http://www.w3.org/2000/svg" viewBox="0 0 408 820"><defs><style>.cls-1{fill:#231f20;}.cls-2{fill:#fff;}.cls-3,.cls-4{fill:#010101;}.cls-4{fill-rule:evenodd;}</style></defs><title>Artboard 01</title><g id="Background"><rect class="cls-1" width="408" height="820"/><rect class="cls-2" x="4" y="4" width="400" height="200"/><rect class="cls-2" x="4" y="616" width="400" height="200"/><rect class="cls-2" x="4" y="412" width="400" height="200"/><rect class="cls-2" x="4" y="208" width="400" height="200"/></g><g id="Icons"><g id="Mission_Control" data-name="Mission Control"><path class="cls-3" d="M223,705a1,1,0,0,1,1,1v18a1,1,0,0,1-1,1h-8a1,1,0,0,1-1-1V706a1,1,0,0,1,1-1h8m0-2h-8a3,3,0,0,0-3,3v18a3,3,0,0,0,3,3h8a3,3,0,0,0,3-3V706a3,3,0,0,0-3-3"/><path class="cls-3" d="M205,722a1,1,0,0,1,1,1v7a1,1,0,0,1-1,1H193a1,1,0,0,1-1-1v-7a1,1,0,0,1,1-1h12m0-2H193a3,3,0,0,0-3,3v7a3,3,0,0,0,3,3h12a3,3,0,0,0,3-3v-7a3,3,0,0,0-3-3"/><path class="cls-3" d="M202,701a1,1,0,0,1,1,1v8a1,1,0,0,1-1,1H185a1,1,0,0,1-1-1v-8a1,1,0,0,1,1-1h17m0-2H185a3,3,0,0,0-3,3v8a3,3,0,0,0,3,3h17a3,3,0,0,0,3-3v-8a3,3,0,0,0-3-3"/></g><path id="Volume_Mute" data-name="Volume Mute" class="cls-3" d="M102,506H96a2,2,0,0,0-2,2v8a2,2,0,0,0,2,2h6l10.4,7.8a1,1,0,0,0,1.6-.8V499a1,1,0,0,0-1.6-.8Z"/><g id="Volume_Decrease" data-name="Volume Decrease"><path class="cls-3" d="M197.5,506h-6a2,2,0,0,0-2,2v8a2,2,0,0,0,2,2h6l10.4,7.8a1,1,0,0,0,1.6-.8V499a1,1,0,0,0-1.6-.8Z"/><path class="cls-3" d="M216.53,512a11.78,11.78,0,0,1-1.87,6.4,1.07,1.07,0,0,0,.21,1.37,1,1,0,0,0,1.45-.24,14.09,14.09,0,0,0,0-15.06,1,1,0,0,0-1.45-.24,1.07,1.07,0,0,0-.21,1.37,11.78,11.78,0,0,1,1.87,6.4"/></g><g id="Volume_Increase" data-name="Volume Increase"><path class="cls-3" d="M289,506h-6a2,2,0,0,0-2,2v8a2,2,0,0,0,2,2h6l10.4,7.8a1,1,0,0,0,1.6-.8V499a1,1,0,0,0-1.6-.8Z"/><path class="cls-3" d="M324.94,512a29,29,0,0,1-5.73,17.32,1.06,1.06,0,0,0,.17,1.45,1,1,0,0,0,1.48-.18,31.21,31.21,0,0,0,0-37.18,1,1,0,1,0-1.65,1.26A29,29,0,0,1,324.94,512"/><path class="cls-3" d="M315.93,512a19.21,19.21,0,0,1-3.72,11.35,1,1,0,0,0,.18,1.42,1,1,0,0,0,1.48-.18,21.25,21.25,0,0,0,0-25.18,1,1,0,0,0-1.48-.18,1,1,0,0,0-.18,1.42A19.21,19.21,0,0,1,315.93,512"/><path class="cls-3" d="M308,512a11.78,11.78,0,0,1-1.87,6.4,1.07,1.07,0,0,0,.21,1.37,1,1,0,0,0,1.45-.24,14.09,14.09,0,0,0,0-15.06,1,1,0,0,0-1.45-.24,1.07,1.07,0,0,0-.21,1.37A11.78,11.78,0,0,1,308,512"/></g><g id="Fastforward"><path class="cls-3" d="M304,297.06v21.88a1,1,0,0,0,1.4.95l20.07-10.95a1.1,1.1,0,0,0,0-1.88L305.4,296.11a1,1,0,0,0-1.4.95"/><path class="cls-3" d="M282,297.06v21.88a1,1,0,0,0,1.4.95l20.07-10.95a1.1,1.1,0,0,0,0-1.88L283.4,296.11a1,1,0,0,0-1.4.95"/></g><g id="Play_Pause" data-name="Play/Pause"><path class="cls-3" d="M213,320h-5a1,1,0,0,1-1-1V297a1,1,0,0,1,1-1h5a1,1,0,0,1,1,1v22a1,1,0,0,1-1,1"/><path class="cls-3" d="M226,320h-5a1,1,0,0,1-1-1V297a1,1,0,0,1,1-1h5a1,1,0,0,1,1,1v22a1,1,0,0,1-1,1"/><path class="cls-3" d="M181,318.94V297.06a1.06,1.06,0,0,1,1.53-.95l21.89,10.95a1.05,1.05,0,0,1,0,1.88l-21.89,10.95a1.06,1.06,0,0,1-1.53-.95"/></g><g id="Rewind"><path class="cls-3" d="M104,318.94V297.06a1,1,0,0,0-1.4-.95L82.53,307.06a1.1,1.1,0,0,0,0,1.88l20.07,10.95a1,1,0,0,0,1.4-.95"/><path class="cls-3" d="M126,318.94V297.06a1,1,0,0,0-1.4-.95l-20.07,10.95a1.1,1.1,0,0,0,0,1.88l20.07,10.95a1,1,0,0,0,1.4-.95"/></g><g id="Launchpad"><path class="cls-3" d="M91,704a1,1,0,0,1,1,1v6a1,1,0,0,1-1,1H85a1,1,0,0,1-1-1v-6a1,1,0,0,1,1-1h6m0-2H85a3,3,0,0,0-3,3v6a3,3,0,0,0,3,3h6a3,3,0,0,0,3-3v-6a3,3,0,0,0-3-3"/><path class="cls-3" d="M107,704a1,1,0,0,1,1,1v6a1,1,0,0,1-1,1h-6a1,1,0,0,1-1-1v-6a1,1,0,0,1,1-1h6m0-2h-6a3,3,0,0,0-3,3v6a3,3,0,0,0,3,3h6a3,3,0,0,0,3-3v-6a3,3,0,0,0-3-3"/><path class="cls-3" d="M123,704a1,1,0,0,1,1,1v6a1,1,0,0,1-1,1h-6a1,1,0,0,1-1-1v-6a1,1,0,0,1,1-1h6m0-2h-6a3,3,0,0,0-3,3v6a3,3,0,0,0,3,3h6a3,3,0,0,0,3-3v-6a3,3,0,0,0-3-3"/><path class="cls-3" d="M91,720a1,1,0,0,1,1,1v6a1,1,0,0,1-1,1H85a1,1,0,0,1-1-1v-6a1,1,0,0,1,1-1h6m0-2H85a3,3,0,0,0-3,3v6a3,3,0,0,0,3,3h6a3,3,0,0,0,3-3v-6a3,3,0,0,0-3-3"/><path class="cls-3" d="M107,720a1,1,0,0,1,1,1v6a1,1,0,0,1-1,1h-6a1,1,0,0,1-1-1v-6a1,1,0,0,1,1-1h6m0-2h-6a3,3,0,0,0-3,3v6a3,3,0,0,0,3,3h6a3,3,0,0,0,3-3v-6a3,3,0,0,0-3-3"/><path class="cls-3" d="M123,720a1,1,0,0,1,1,1v6a1,1,0,0,1-1,1h-6a1,1,0,0,1-1-1v-6a1,1,0,0,1,1-1h6m0-2h-6a3,3,0,0,0-3,3v6a3,3,0,0,0,3,3h6a3,3,0,0,0,3-3v-6a3,3,0,0,0-3-3"/></g><g id="Brightness_Decrease" data-name="Brightness Decrease"><path class="cls-3" d="M210,104a6,6,0,1,0-6,6,6,6,0,0,0,6-6"/><path class="cls-3" d="M206,92a2,2,0,1,0-2,2,2,2,0,0,0,2-2"/><path class="cls-3" d="M215,95a2,2,0,1,0-2,2,2,2,0,0,0,2-2"/><path class="cls-3" d="M197,95a2,2,0,1,0-2,2,2,2,0,0,0,2-2"/><path class="cls-3" d="M194,104a2,2,0,1,0-2,2,2,2,0,0,0,2-2"/><path class="cls-3" d="M218,104a2,2,0,1,0-2,2,2,2,0,0,0,2-2"/><path class="cls-3" d="M215,113a2,2,0,1,0-2,2,2,2,0,0,0,2-2"/><path class="cls-3" d="M206,116a2,2,0,1,0-2,2,2,2,0,0,0,2-2"/><path class="cls-3" d="M197,113a2,2,0,1,0-2,2,2,2,0,0,0,2-2"/></g><g id="Brightness_Increase" data-name="Brightness Increase"><path class="cls-3" d="M310,104a6,6,0,1,0-6,6,6,6,0,0,0,6-6"/><path class="cls-3" d="M306,93a2,2,0,1,0-2,2,2,2,0,0,0,2-2"/><path class="cls-3" d="M306,90a2,2,0,1,0-2,2,2,2,0,0,0,2-2"/><rect class="cls-3" x="302" y="90" width="4" height="3"/><path class="cls-3" d="M306,118a2,2,0,1,0-2,2,2,2,0,0,0,2-2"/><path class="cls-3" d="M306,115a2,2,0,1,0-2,2,2,2,0,0,0,2-2"/><rect class="cls-3" x="302" y="115" width="4" height="3"/><path class="cls-3" d="M315,106a2,2,0,1,0-2-2,2,2,0,0,0,2,2"/><path class="cls-3" d="M318,106a2,2,0,1,0-2-2,2,2,0,0,0,2,2"/><rect class="cls-3" x="315" y="102" width="3" height="4"/><path class="cls-3" d="M290,106a2,2,0,1,0-2-2,2,2,0,0,0,2,2"/><path class="cls-3" d="M293,106a2,2,0,1,0-2-2,2,2,0,0,0,2,2"/><rect class="cls-3" x="290" y="102" width="3" height="4"/><path class="cls-3" d="M313.19,97.64a2,2,0,1,0-2.83,0,2,2,0,0,0,2.83,0"/><path class="cls-3" d="M315.31,95.51a2,2,0,1,0-2.82,0,2,2,0,0,0,2.82,0"/><rect class="cls-3" x="311.34" y="93.16" width="3" height="4" transform="translate(24.34 249.08) rotate(-45)"/><path class="cls-3" d="M295.51,115.31a2,2,0,1,0-2.82,0,2,2,0,0,0,2.82,0"/><path class="cls-3" d="M297.64,113.19a2,2,0,1,0-2.83,0,2,2,0,0,0,2.83,0"/><rect class="cls-3" x="293.66" y="110.84" width="3" height="4" transform="translate(6.66 241.76) rotate(-45)"/><path class="cls-3" d="M297.64,94.81a2,2,0,1,0,0,2.83,2,2,0,0,0,0-2.83"/><path class="cls-3" d="M295.51,92.69a2,2,0,1,0,0,2.82,2,2,0,0,0,0-2.82"/><rect class="cls-3" x="293.16" y="93.66" width="4" height="3" transform="translate(19.16 236.58) rotate(-45)"/><path class="cls-3" d="M315.31,112.49a2,2,0,1,0,0,2.82,2,2,0,0,0,0-2.82"/><path class="cls-3" d="M313.19,110.36a2,2,0,1,0,0,2.83,2,2,0,0,0,0-2.83"/><rect class="cls-3" x="310.84" y="111.34" width="4" height="3" transform="translate(11.84 254.26) rotate(-45)"/></g><g id="Dashboard"><path class="cls-3" d="M304,700a16,16,0,1,1-16,16,16,16,0,0,1,16-16m0-2a18,18,0,1,0,18,18,18,18,0,0,0-18-18"/><path class="cls-3" d="M308,725a4,4,0,1,0-4,4,4,4,0,0,0,4-4"/><rect class="cls-3" x="303" y="710" width="2" height="15"/><path class="cls-3" d="M305,703a1,1,0,1,0-1,1,1,1,0,0,0,1-1"/><path class="cls-3" d="M311.36,705.24a1,1,0,1,0-1.37.37,1,1,0,0,0,1.37-.37"/><path class="cls-3" d="M315.74,710.36a1,1,0,0,0-1-1.74,1,1,0,0,0,1,1.74"/><path class="cls-3" d="M298.38,704.24a1,1,0,1,0-.37,1.37,1,1,0,0,0,.37-1.37"/><path class="cls-3" d="M293.26,708.62a1,1,0,1,0-1,1.74,1,1,0,0,0,1-1.74"/></g><g id="Eject"><path class="cls-4" d="M93.35,111.29h21.3a1.18,1.18,0,0,1,1.19,1.18v2.37a1.19,1.19,0,0,1-1.19,1.19H93.35a1.19,1.19,0,0,1-1.19-1.19v-2.37a1.18,1.18,0,0,1,1.19-1.18"/><path class="cls-4" d="M94,106.51l20,0a1.17,1.17,0,0,0,1-1.89L105,92.43a1.28,1.28,0,0,0-2,0L93,104.61a1.18,1.18,0,0,0,1,1.9"/></g></g></svg>